<?xml version="1.0" encoding="UTF-8"?>
<svg width="600" height="400" viewBox="0 0 600 400" xmlns="http://www.w3.org/2000/svg">
  <defs>
    <linearGradient id="bg-gradient" x1="0%" y1="0%" x2="100%" y2="100%">
      <stop offset="0%" stop-color="#3498db" stop-opacity="0.8"/>
      <stop offset="100%" stop-color="#2c3e50" stop-opacity="0.9"/>
    </linearGradient>
  </defs>
  
  <!-- Background -->
  <rect x="0" y="0" width="600" height="400" fill="url(#bg-gradient)" rx="10" ry="10"/>
  
  <!-- Grid lines -->
  <g stroke="#ffffff" stroke-width="0.5" stroke-opacity="0.2">
    <line x1="50" y1="50" x2="50" y2="350"/>
    <line x1="150" y1="50" x2="150" y2="350"/>
    <line x1="250" y1="50" x2="250" y2="350"/>
    <line x1="350" y1="50" x2="350" y2="350"/>
    <line x1="450" y1="50" x2="450" y2="350"/>
    <line x1="550" y1="50" x2="550" y2="350"/>
    
    <line x1="50" y1="50" x2="550" y2="50"/>
    <line x1="50" y1="100" x2="550" y2="100"/>
    <line x1="50" y1="150" x2="550" y2="150"/>
    <line x1="50" y1="200" x2="550" y2="200"/>
    <line x1="50" y1="250" x2="550" y2="250"/>
    <line x1="50" y1="300" x2="550" y2="300"/>
    <line x1="50" y1="350" x2="550" y2="350"/>
  </g>
  
  <!-- Charts -->
  <!-- Line Chart -->
  <polyline 
    fill="none" 
    stroke="#3498db" 
    stroke-width="3"
    points="50,250 100,200 150,220 200,170 250,140 300,160 350,120 400,90 450,110 500,70 550,50"
  />
  
  <!-- Bar Chart -->
  <g fill="#e74c3c" opacity="0.8">
    <rect x="70" y="280" width="30" height="70"/>
    <rect x="170" y="260" width="30" height="90"/>
    <rect x="270" y="220" width="30" height="130"/>
    <rect x="370" y="200" width="30" height="150"/>
    <rect x="470" y="240" width="30" height="110"/>
  </g>
  
  <!-- Scatter Plot Points -->
  <g fill="#2ecc71">
    <circle cx="110" cy="140" r="5"/>
    <circle cx="180" cy="90" r="8"/>
    <circle cx="230" cy="120" r="6"/>
    <circle cx="310" cy="80" r="9"/>
    <circle cx="380" cy="160" r="7"/>
    <circle cx="420" cy="130" r="5"/>
    <circle cx="490" cy="110" r="8"/>
    <circle cx="540" cy="90" r="6"/>
  </g>
  
  <!-- Data icons and symbols -->
  <g fill="#ffffff">
    <circle cx="150" cy="320" r="15" opacity="0.6"/>
    <circle cx="450" cy="280" r="12" opacity="0.5"/>
    <rect x="250" y="70" width="20" height="20" opacity="0.5"/>
    <rect x="350" y="300" width="15" height="15" opacity="0.6"/>
    
    <!-- Abstract data connections -->
    <line x1="150" y1="320" x2="250" y2="70" stroke="#ffffff" stroke-width="1" opacity="0.3"/>
    <line x1="250" y1="70" x2="450" y2="280" stroke="#ffffff" stroke-width="1" opacity="0.3"/>
    <line x1="450" y1="280" x2="350" y2="300" stroke="#ffffff" stroke-width="1" opacity="0.3"/>
    <line x1="350" y1="300" x2="150" y2="320" stroke="#ffffff" stroke-width="1" opacity="0.3"/>
  </g>
</svg> 