<?xml version="1.0" encoding="UTF-8"?>
<svg width="24px" height="24px" viewBox="0 0 24 24" version="1.1" xmlns="http://www.w3.org/2000/svg" xmlns:xlink="http://www.w3.org/1999/xlink">
    <title>Chart Icon</title>
    <g stroke="none" stroke-width="1" fill="none" fill-rule="evenodd">
        <rect fill="#FFFFFF" x="0" y="0" width="24" height="24"></rect>
        <path d="M5,6 L19,6 C19.5522847,6 20,6.44771525 20,7 L20,17 C20,17.5522847 19.5522847,18 19,18 L5,18 C4.44771525,18 4,17.5522847 4,17 L4,7 C4,6.44771525 4.44771525,6 5,6 Z M5,8 L5,16 L19,16 L19,8 L5,8 Z" fill="#4361EE" fill-rule="nonzero"></path>
        <path d="M7,14 L9,14 L9,10 L7,10 L7,14 Z M11,14 L13,14 L13,8 L11,8 L11,14 Z M15,14 L17,14 L17,12 L15,12 L15,14 Z" fill="#4361EE" fill-rule="nonzero"></path>
    </g>
</svg>